# xmcd CD database file
#
# Track frame offsets:
#	150
#	28117
#	51597
#	79625
#	97630
#	124485
#	142202
#	156800
#	182455
#	198062
#
# Disc length: 2846 seconds
#
# Revision: 1
# Processed by: cddbd v1.5.2PL0 Copyright (c) Steve Scherf et al.
# Submitted via: CDex 1.51
#
DISCID=810b1c0a
DTITLE=Little Sonny - The Best Love I Ever Had
DYEAR=1900
DGENRE=Blues
TTITLE0=The Best Love I Ever Had
TTITLE1=The End Of Your Rope
TTITLE2=I'll Never Trust You Again
TTITLE3=The Ghetto
TTITLE4=When Love Begins Friendship Ends
TTITLE5=Jam
TTITLE6=Love Mechanic
TTITLE7=Harmonica Funk Blues
TTITLE8=Watching The Peoples
TTITLE9=Outer Funk
EXTD=
EXTT0=
EXTT1=
EXTT2=
EXTT3=
EXTT4=
EXTT5=
EXTT6=
EXTT7=
EXTT8=
EXTT9=
PLAYORDER=
